<?xml version="1.0" encoding="UTF-8"?> <!-- Generator: Adobe Illustrator 23.0.3, SVG Export Plug-In . SVG Version: 6.00 Build 0) --> <svg xmlns="http://www.w3.org/2000/svg" xmlns:xlink="http://www.w3.org/1999/xlink" id="Layer_1" x="0px" y="0px" viewBox="0 0 350 55" style="enable-background:new 0 0 350 55;" xml:space="preserve"> <style type="text/css"> .st0{fill:#00AEEF;} </style> <g> <path d="M57.6,14.13L41.15,27.97l6.41,13.82H31.85l-3.87-8.35l-3.06,8.35H11.6l10.01-27.66h13.37l-3.04,8.35l9.95-8.35H57.6z"></path> <path d="M95.81,41.79H66.87l2.43-6.68h9.72l-2.52-8.98L60.68,41.79H45.8l27.84-27.66h14.38L95.81,41.79z"></path> <path d="M139.04,16.54c0,0.21-0.04,0.45-0.13,0.72l-3.69,10.24c-0.35,0.93-1.15,1.7-2.41,2.32c-1.13,0.54-2.24,0.81-3.35,0.81 h-1.53l3.87,11.16h-12.15l-5.72-16.49h8.71l1.6-4.48h-8.75l-7.61,20.97H94.55l10.01-27.66h30.88c0.84,0,1.6,0.19,2.29,0.56 C138.6,15.14,139.04,15.76,139.04,16.54z"></path> <path d="M178.76,14.13l-2.45,6.68h-11.05l-7.61,20.97h-13.37l7.61-20.97h-11.07l2.45-6.68H178.76z"></path> <path class="st0" d="M216.45,16.54c0,0.21-0.04,0.45-0.13,0.72l-4.39,12.04c-0.35,0.93-1.14,1.69-2.39,2.29 c-1.09,0.56-2.21,0.83-3.33,0.83H188.7l-3.42,9.36h-13.32l10.02-27.66h30.87c0.84,0,1.61,0.19,2.3,0.56 C216.02,15.14,216.45,15.76,216.45,16.54z M201.64,20.81h-8.75l-2.25,6.28h8.75L201.64,20.81z"></path> <path class="st0" d="M246.54,41.79h-35.87l10.02-27.66h13.37l-7.61,20.97h17.73L246.54,41.79z"></path> <path class="st0" d="M293.91,14.13l-7.22,6.68h-17.76l-1.6,4.48h17.96l-1.93,5.33H265.4l-1.62,4.48h22.53l-7.22,6.68H248 l10.02-27.66H293.91z"></path> <path class="st0" d="M338.36,14.13l-18.59,13.84l8.53,13.82h-16.45l-3.35-5.45l-7.34,5.45h-16.41l18.52-13.82l-8.53-13.84h16.45 l3.38,5.45l7.34-5.45H338.36z"></path> </g> </svg> 